# xmcd CD database file
# Copyright (C) 1997 Ti Kan
#
# Track frame offsets:
#  150
#  11807
#  32362
#  56400
#  72695
#  84095
#  98287
#  118620
#  126607
#  149070
#
# Disc length: 2216 seconds
#
# Revision: 1
# Processed by: cddbd v1.4b41PL1 Copyright (c) Steve Scherf et al.
# Submitted via: CDWizzard Release:4.32
#
DISCID=8608a60a
DTITLE=Enerstine Anderson - SUNSHINE
DYEAR=1900
DGENRE=
TTITLE0=LOVE
TTITLE1=SUMMERTIME
TTITLE2=TIME AFTER TIME
TTITLE3=GOD BLESS THE CHILD
TTITLE4=I'VE GOT THE WORLD ON A STRING
TTITLE5=I'M WALKIN'
TTITLE6=I WANT A LITTLE BOY
TTITLE7=YOU ARE MY SUNSHINE
TTITLE8=SATIN DOLL
TTITLE9=SUNNY
EXTD=
EXTT0=
EXTT1=
EXTT2=
EXTT3=
EXTT4=
EXTT5=
EXTT6=
EXTT7=
EXTT8=
EXTT9=
PLAYORDER=
